<svg width="32" height="32" viewBox="0 0 32 32" fill="none" xmlns="http://www.w3.org/2000/svg">
<path d="M13.3333 21.3333V28M18.6667 21.3333V28M18.6667 12L21.3333 21.3333H10.6667L13.3333 12M18.6667 12H13.3333M18.6667 12C20.8889 12 23.1111 12.8888 25.3333 14.6666M13.3333 12C11.1111 12 8.88889 12.8888 6.66667 14.6666M13.3333 5.33329C13.3333 6.04054 13.6143 6.71881 14.1144 7.21891C14.6145 7.71901 15.2928 7.99996 16 7.99996C16.7072 7.99996 17.3855 7.71901 17.8856 7.21891C18.3857 6.71881 18.6667 6.04054 18.6667 5.33329C18.6667 4.62605 18.3857 3.94777 17.8856 3.44767C17.3855 2.94758 16.7072 2.66663 16 2.66663C15.2928 2.66663 14.6145 2.94758 14.1144 3.44767C13.6143 3.94777 13.3333 4.62605 13.3333 5.33329Z" stroke="#1F3A5F" stroke-width="2" stroke-linecap="round" stroke-linejoin="round"/>
</svg>
