<svg width="32" height="32" viewBox="0 0 32 32" fill="none" xmlns="http://www.w3.org/2000/svg">
<path d="M1.33333 29.3334C1.33333 30.0534 1.93333 30.6667 2.66666 30.6667H20C20.7467 30.6667 21.3333 30.0534 21.3333 29.3334V28H1.33333V29.3334ZM11.3333 12C6.33333 12 1.33333 14.6667 1.33333 20H21.3333C21.3333 14.6667 16.3333 12 11.3333 12ZM4.82666 17.3334C6.30666 15.2667 9.45333 14.6667 11.3333 14.6667C13.2133 14.6667 16.36 15.2667 17.84 17.3334H4.82666ZM1.33333 22.6667H21.3333V25.3334H1.33333V22.6667ZM24 6.66671V1.33337H21.3333V6.66671H14.6667L14.9733 9.33337H27.72L25.8533 28H24V30.6667H26.2933C27.4133 30.6667 28.3333 29.8 28.4667 28.7067L30.6667 6.66671H24Z" fill="#1F3A5F"/>
</svg>
