<svg width="32" height="32" viewBox="0 0 32 32" fill="none" xmlns="http://www.w3.org/2000/svg">
<path d="M14.6667 26.2053L13.1254 24.8159C11.0987 22.9608 9.41024 21.3639 8.06002 20.0253C6.7098 18.6866 5.63735 17.4959 4.84269 16.4533C4.04624 15.4106 3.48446 14.4568 3.15735 13.5919C2.83024 12.7271 2.66669 11.8519 2.66669 10.9666C2.66669 9.27061 3.24269 7.84794 4.39469 6.69861C5.54669 5.54928 6.97069 4.97461 8.66669 4.97461C9.84002 4.97461 10.94 5.27328 11.9667 5.87061C12.9934 6.46794 13.8934 7.33905 14.6667 8.48394C15.44 7.33905 16.34 6.46794 17.3667 5.87061C18.3942 5.27328 19.4942 4.97461 20.6667 4.97461C22.2818 4.97461 23.6431 5.4955 24.7507 6.53728C25.8574 7.57905 26.4809 8.85817 26.6214 10.3746C26.2276 10.2475 25.8289 10.1577 25.4254 10.1053C25.0227 10.0519 24.6169 10.0253 24.208 10.0253C22.2676 10.0431 20.5814 10.7186 19.1494 12.0519C17.7174 13.3853 17.0009 15.1288 17 17.2826C17 18.1608 17.1609 19.0391 17.4827 19.9173C17.8045 20.7955 18.2934 21.5871 18.9494 22.2919C18.4756 22.7213 17.9556 23.1964 17.3894 23.7173C16.8231 24.2382 16.2525 24.7631 15.6774 25.2919L14.6667 26.2053ZM23.9334 20.6186L21.0827 17.7999L22.0334 16.8559L23.9334 18.7493L28.6334 14.0226L29.584 14.9666L23.9334 20.6186Z" fill="#1F3A5F"/>
</svg>
