<svg width="32" height="32" viewBox="0 0 32 32" fill="none" xmlns="http://www.w3.org/2000/svg">
<path d="M4 28V25.3333H6.66667V4H20V5.33333H25.3333V25.3333H28V28H22.6667V8H20V28H4ZM15.6173 16.9507C15.8724 16.6947 16 16.3778 16 16C16 15.6222 15.872 15.3058 15.616 15.0507C15.36 14.7956 15.0436 14.6676 14.6667 14.6667C14.2898 14.6658 13.9733 14.7938 13.7173 15.0507C13.4613 15.3076 13.3333 15.624 13.3333 16C13.3333 16.376 13.4613 16.6929 13.7173 16.9507C13.9733 17.2084 14.2898 17.336 14.6667 17.3333C15.0436 17.3307 15.3604 17.2027 15.6173 16.9493M9.33333 25.3333H17.3333V6.66667H9.33333V25.3333Z" fill="#1F3A5F"/>
</svg>
